<?xml version="1.0" standalone="no"?>
<!DOCTYPE svg PUBLIC "-//W3C//DTD SVG 20010904//EN" "http://www.w3.org/TR/2001/REC-SVG-20010904/DTD/svg10.dtd">
<!-- Created using Krita: https://krita.org -->
<svg xmlns="http://www.w3.org/2000/svg" 
    xmlns:xlink="http://www.w3.org/1999/xlink"
    xmlns:krita="http://krita.org/namespaces/svg/krita"
    xmlns:sodipodi="http://sodipodi.sourceforge.net/DTD/sodipodi-0.dtd"
    width="15.36pt"
    height="15.36pt"
    viewBox="0 0 15.36 15.36">
<defs/>
<path id="outline" transform="matrix(0.240000005364418 0 0 0.240000005364418 0.480000010728836 4.56000010192394)" fill="none" stroke="#ffffff" stroke-width="2" stroke-linecap="butt" stroke-linejoin="round" d="M13 0L47 0C54.1797 7.10543e-15 60 5.8203 60 13C60 20.1797 54.1797 26 47 26L13 26C5.8203 26 8.88178e-16 20.1797 0 13C-6.66134e-16 5.8203 5.8203 0 13 0Z"/><path id="button_l" transform="matrix(0.240000005364418 0 0 0.240000005364418 0.480000010728836 4.56000010192394)" fill="#ffffff" stroke="#000000" stroke-opacity="0" stroke-width="0" stroke-linecap="square" stroke-linejoin="bevel" d="M13 0C5.8203 0 4.44089e-16 5.8203 0 13C4.44089e-16 20.1797 5.8203 26 13 26L47 26C54.1797 26 60 20.1797 60 13C60 5.8203 54.1797 3.55271e-15 47 0ZM25.8984 3.61033L30.9878 3.66331L30.894 18.1001L36.1687 18.1663L36.1687 22.4843L25.6819 22.4843Z"/>
</svg>
