<?xml version="1.0" standalone="no"?>
<!DOCTYPE svg PUBLIC "-//W3C//DTD SVG 20010904//EN" "http://www.w3.org/TR/2001/REC-SVG-20010904/DTD/svg10.dtd">
<!-- Created using Krita: https://krita.org -->
<svg xmlns="http://www.w3.org/2000/svg" 
    xmlns:xlink="http://www.w3.org/1999/xlink"
    xmlns:krita="http://krita.org/namespaces/svg/krita"
    xmlns:sodipodi="http://sodipodi.sourceforge.net/DTD/sodipodi-0.dtd"
    width="15.36pt"
    height="15.36pt"
    viewBox="0 0 15.36 15.36">
<defs/>
<circle id="outline" transform="matrix(0.24 0 0 0.24 0.96 0.96)" r="28" cx="28" cy="28" fill="none" stroke="#ffffff" stroke-width="2" stroke-linecap="butt" stroke-linejoin="miter" stroke-miterlimit="2"/><path id="button_2" transform="matrix(0.24 0 0 0.24 0.96 0.96)" fill="#ffffff" stroke="#000000" stroke-opacity="0" stroke-width="0" stroke-linecap="square" stroke-linejoin="bevel" d="M28 0C12.536 -2.66454e-15 1.77636e-15 12.536 0 28C1.77636e-15 43.464 12.536 56 28 56C43.464 56 56 43.464 56 28C56 12.536 43.464 -8.88178e-16 28 0ZM28.3117 12.3219C30.9028 12.3219 33.4064 13.6736 34.7606 15.0798C36.1147 16.473 36.6385 18.8045 36.6385 21.2394C36.6385 22.841 36.0847 24.5886 35.5117 26.0469C34.9388 27.5053 34.5222 28.7591 33.5587 30.1784C32.6082 31.5977 31.3354 33.9716 28.9005 37.0576C31.8432 37.0576 35.6488 37.0141 38.5915 37.0141L38.5164 43.9249L18.9859 44.1502C18.935 44.1869 18.511 39.6065 18.9859 37.6901L24.9629 30.9883C25.653 30.0117 26.1803 29.237 26.5449 28.6641C26.9225 28.0911 27.3392 27.3815 27.7949 26.5352C28.6543 24.9206 29.084 23.2865 29.084 21.6328C29.084 20.7344 28.9277 20.0508 28.6152 19.582C28.3027 19.1003 27.8796 18.8594 27.3457 18.8594C26.7207 18.8594 26.0957 19.1263 25.4707 19.6602C24.9238 20.1419 24.4421 20.6172 24.0254 21.0859C23.6087 21.5547 22.3171 22.6276 22.2911 22.6667C20.7136 21.4898 19.1362 20.313 17.5587 19.1362C17.5919 19.0997 17.9265 18.912 17.6611 19.0239C19.0261 17.5287 21.723 14.6513 22.9671 13.9531C24.2562 13.2369 26.6841 12.3219 28.3117 12.3219Z"/>
</svg>
