<?xml version="1.0" standalone="no"?>
<!DOCTYPE svg PUBLIC "-//W3C//DTD SVG 20010904//EN" "http://www.w3.org/TR/2001/REC-SVG-20010904/DTD/svg10.dtd">
<!-- Created using Krita: https://krita.org -->
<svg xmlns="http://www.w3.org/2000/svg" 
    xmlns:xlink="http://www.w3.org/1999/xlink"
    xmlns:krita="http://krita.org/namespaces/svg/krita"
    xmlns:sodipodi="http://sodipodi.sourceforge.net/DTD/sodipodi-0.dtd"
    width="15.36pt"
    height="15.36pt"
    viewBox="0 0 15.36 15.36">
<defs/>
<circle id="outline" transform="matrix(0.24 0 0 0.24 0.96 0.96)" r="28" cx="28" cy="28" fill="none" stroke="#ffffff" stroke-width="2" stroke-linecap="butt" stroke-linejoin="miter" stroke-miterlimit="2"/><path id="button_3" transform="matrix(0.24 0 0 0.24 0.96 0.96)" fill="#ffffff" stroke="#000000" stroke-opacity="0" stroke-width="0" stroke-linecap="square" stroke-linejoin="bevel" d="M28 0C12.536 -2.66454e-15 1.77636e-15 12.536 0 28C1.77636e-15 43.464 12.536 56 28 56C43.464 56 56 43.464 56 28C56 12.536 43.464 -8.88178e-16 28 0ZM28 13.0516C29.5365 13.0516 30.999 13.659 32.223 14.1798C33.46 14.6876 34.4561 15.4884 35.2113 16.5822C35.9795 17.6629 36.2629 19.076 36.2629 20.6385C36.2629 22.188 36.2048 23.6732 35.4366 24.8451C34.6814 26.0039 33.4756 26.6368 32.0563 27.2488C33.6579 27.6915 34.8156 28.5328 35.662 29.6526C36.5213 30.7724 36.7136 32.4148 36.7136 34.1596C36.7136 36.907 35.656 39.1323 33.8592 40.6948C32.0623 42.2443 29.7018 43.2488 26.7981 43.2488C23.8945 43.2488 20.5935 42.5077 18.8357 41.5962L19.061 35.7371C20.4673 36.5444 22.541 37.1862 24.1035 37.5117C24.7676 37.6419 25.3991 37.707 25.998 37.707C27.209 37.707 28.1139 37.401 28.7129 36.7891C29.3118 36.1771 29.6113 35.2135 29.6113 33.8984C29.6113 31.4115 28.1855 30.168 25.334 30.168L23.2676 30.0282L23.3427 25.5211L25.2754 25.4805C26.5254 25.4805 27.4759 25.1615 28.127 24.5234C28.778 23.8724 29.1035 22.9219 29.1035 21.6719C29.1035 20.7214 28.9212 19.9987 28.5566 19.5039C28.1921 19.0091 27.6712 18.7617 26.9941 18.7617C25.7702 18.7617 24.5072 19.1523 23.2051 19.9336C22.8926 20.1159 21.5519 20.8418 21.2394 21.0892L18.385 17.2582C18.6063 16.9978 20.1898 15.6467 20.7887 15.23C21.3877 14.8004 21.8684 14.6772 22.4413 14.4038C23.0142 14.1173 23.9466 13.6486 24.8451 13.4272C25.7435 13.1929 27.0755 13.0516 28 13.0516Z"/>
</svg>
