<?xml version="1.0" standalone="no"?>
<!DOCTYPE svg PUBLIC "-//W3C//DTD SVG 20010904//EN" "http://www.w3.org/TR/2001/REC-SVG-20010904/DTD/svg10.dtd">
<!-- Created using Krita: https://krita.org -->
<svg xmlns="http://www.w3.org/2000/svg" 
    xmlns:xlink="http://www.w3.org/1999/xlink"
    xmlns:krita="http://krita.org/namespaces/svg/krita"
    xmlns:sodipodi="http://sodipodi.sourceforge.net/DTD/sodipodi-0.dtd"
    width="15.36pt"
    height="15.36pt"
    viewBox="0 0 15.36 15.36">
<defs/>
<path id="button_l" transform="matrix(0.240000001125865 0 0 0.240000001125865 0.479999966224036 0.858795202114334)" fill="#ffffff" stroke="#000000" stroke-opacity="0" stroke-width="0" stroke-linecap="square" stroke-linejoin="bevel" d="M13 0C5.8203 0 4.44089e-16 5.8203 0 13C4.44089e-16 20.1797 5.8203 26 13 26L47 26C54.1797 26 60 20.1797 60 13C60 5.8203 54.1797 3.55271e-15 47 0ZM25.8984 3.61033L30.9878 3.66331L30.894 18.1001L36.1687 18.1663L36.1687 22.4843L25.6819 22.4843Z"/><path id="button_r" transform="matrix(0.240000001125865 0 0 0.240000001125865 0.479999966224036 8.22419279247578)" fill="#ffffff" stroke="#000000" stroke-opacity="0" stroke-width="0" stroke-linecap="square" stroke-linejoin="bevel" d="M13 0C5.8203 0 4.44089e-16 5.8203 0 13C4.44089e-16 20.1797 5.8203 26 13 26L47 26C54.1797 26 60 20.1797 60 13C60 5.8203 54.1797 3.55271e-15 47 0ZM24.8337 3.74699L30 3.74699C31.8828 3.74699 33.2734 4.17277 34.1719 5.02433C35.0703 5.87589 35.5195 7.18058 35.5195 8.93839C35.5195 10.9775 34.7912 13.4661 33.3928 14.388L36.7343 21.8748L31.9908 21.7904L29.3056 15.3347L29.0946 15.3347L29.1518 21.8675L24.8312 21.8675ZM29.0747 7.51915C29.0747 8.96056 29.0747 10.402 29.0747 11.8434L29.7246 11.9336C30.2637 11.9336 30.6543 11.75 30.8965 11.3828C31.1465 11.0156 31.2715 10.4609 31.2715 9.71875C31.2715 8.96875 31.1426 8.42969 30.8848 8.10156C30.6348 7.77344 30.2402 7.60937 29.7012 7.60937Z"/>
</svg>
