<?xml version="1.0" standalone="no"?>
<!DOCTYPE svg PUBLIC "-//W3C//DTD SVG 20010904//EN" "http://www.w3.org/TR/2001/REC-SVG-20010904/DTD/svg10.dtd">
<!-- Created using Krita: https://krita.org -->
<svg xmlns="http://www.w3.org/2000/svg" 
    xmlns:xlink="http://www.w3.org/1999/xlink"
    xmlns:krita="http://krita.org/namespaces/svg/krita"
    xmlns:sodipodi="http://sodipodi.sourceforge.net/DTD/sodipodi-0.dtd"
    width="15.36pt"
    height="15.36pt"
    viewBox="0 0 15.36 15.36">
<defs/>
<path id="outline" transform="matrix(0.24 0 0 0.24 0.96 0.96)" fill="none" stroke="#ffffff" stroke-width="2" stroke-linecap="butt" stroke-linejoin="round" d="M8 0L48 0C52.4183 -8.88178e-16 56 3.58172 56 8L56 48C56 52.4183 52.4183 56 48 56L8 56C3.58172 56 4.44089e-16 52.4183 0 48L4.44089e-16 8C4.44089e-16 3.58172 3.58172 0 8 0Z"/><path id="button_hotkey" transform="matrix(0.24 0 0 0.24 0.96 0.96)" fill="#ffffff" stroke="#000000" stroke-opacity="0" stroke-width="0" stroke-linecap="square" stroke-linejoin="bevel" d="M8 0C3.58172 -4.44089e-16 8.88178e-16 3.58172 0 8L0 48C8.88178e-16 52.4183 3.58172 56 8 56L48 56C52.4183 56 56 52.4183 56 48L56 8C56 3.58172 52.4183 0 48 0ZM29.0391 11.5917C31.2449 11.5917 32.9338 12.2262 34.1055 13.496C35.2771 14.7659 35.8088 16.9233 35.8088 19.3059C35.8088 21.682 35.2739 23.8896 34.0957 25.166C32.9175 26.4424 31.2286 27.0801 29.0293 27.0801C26.83 27.0801 25.1411 26.4424 23.9629 25.166C22.7847 23.8896 22.1408 21.6755 22.1408 19.2864C22.1408 16.8972 22.7302 14.3634 23.9084 13.1066C25.0932 11.8433 26.8397 11.5917 29.0391 11.5917ZM5.16432 11.5304L8.94024 11.6055L8.88577 17.5619L14.5713 17.5619L14.6258 11.6055L18.2276 11.5304L18.2276 26.5949L14.6258 26.67L14.554 21.0141L8.86844 21.0141L8.94024 26.67L5.16432 26.5949C5.16432 21.8104 5.16432 16.3149 5.16432 11.5304ZM38.892 12C45.2192 11.9767 47.5013 11.9285 50.863 11.8957C50.863 12.7401 50.891 15.1079 50.891 15.0648L46.5145 15.094L46.5145 26.9143L43.1737 27.0235C43.1737 23.0834 43.1737 19.1433 43.1737 15.2032L38.9722 15.2442ZM29.0488 14.8359C27.8379 14.8359 26.9258 15.2463 26.3105 16.0645C25.6953 16.8761 25.3323 17.7022 25.3323 19.3059C25.3323 22.5329 26.6009 24.5273 29.0293 24.5273C31.4577 24.5273 32.6174 22.5329 32.6174 19.3059C32.6174 16.0724 31.4642 14.8359 29.0488 14.8359ZM5.16432 29.1187L8.5901 29.1187L9.32305 35.7622L10.6727 34.0747L15.0496 29.1938L19.419 29.0539L13.7823 35.4722L19.5869 44.5258L15.1277 44.6009L10.8714 37.9267L9.42219 38.8505L9.44601 44.6009L5.28727 44.5258ZM23.125 29.3418L33.4085 29.2617L33.4085 31.7559L27.0788 31.7559L27.5295 34.9082L33.108 34.8357L33.0877 37.8286L27.178 37.8286L27.0788 41.1035L33.4836 40.9953C33.5246 42.1837 33.4904 43.4804 33.5314 44.6688L23.248 44.7489ZM35.687 29.5235L40.0009 29.3733L43.3505 35.2854L46.7216 29.3733L50.891 29.3441L45.6288 38.5379L45.6526 44.7512L41.1694 44.9306C41.1614 42.8927 41.1535 40.8548 41.1455 38.8169Z"/>
</svg>
