<?xml version="1.0" standalone="no"?>
<!DOCTYPE svg PUBLIC "-//W3C//DTD SVG 20010904//EN" "http://www.w3.org/TR/2001/REC-SVG-20010904/DTD/svg10.dtd">
<!-- Created using Krita: https://krita.org -->
<svg xmlns="http://www.w3.org/2000/svg" 
    xmlns:xlink="http://www.w3.org/1999/xlink"
    xmlns:krita="http://krita.org/namespaces/svg/krita"
    xmlns:sodipodi="http://sodipodi.sourceforge.net/DTD/sodipodi-0.dtd"
    width="15.36pt"
    height="15.36pt"
    viewBox="0 0 15.36 15.36">
<defs/>
<circle id="outline" transform="matrix(0.24 0 0 0.24 0.96 0.96)" r="28" cx="28" cy="28" fill="none" stroke="#ffffff" stroke-width="2" stroke-linecap="butt" stroke-linejoin="miter" stroke-miterlimit="2"/><path id="button_square" transform="matrix(0.24 0 0 0.24 0.96 0.96)" fill="#ffffff" stroke="#000000" stroke-opacity="0" stroke-width="0" stroke-linecap="square" stroke-linejoin="bevel" d="M28 0C12.536 -2.66454e-15 1.77636e-15 12.536 0 28C1.77636e-15 43.464 12.536 56 28 56C43.464 56 56 43.464 56 28C56 12.536 43.464 -8.88178e-16 28 0ZM13.8892 10.959L41.5036 11.0361C42.6081 11.0363 44.9637 12.9292 44.9639 14.0337C44.9639 23.3671 44.9639 32.7004 44.9639 42.0337C44.9637 43.1383 43.3696 45.1951 42.2651 45.1952L13.8024 45.1277C12.6979 45.1276 10.9206 43.8756 10.9205 42.7711L10.8048 13.1181C10.8049 12.0135 12.7846 10.9591 13.8892 10.959ZM16 16L16 40L40 40L40 16Z"/>
</svg>
