<?xml version="1.0" standalone="no"?>
<!DOCTYPE svg PUBLIC "-//W3C//DTD SVG 20010904//EN" "http://www.w3.org/TR/2001/REC-SVG-20010904/DTD/svg10.dtd">
<!-- Created using Krita: https://krita.org -->
<svg xmlns="http://www.w3.org/2000/svg" 
    xmlns:xlink="http://www.w3.org/1999/xlink"
    xmlns:krita="http://krita.org/namespaces/svg/krita"
    xmlns:sodipodi="http://sodipodi.sourceforge.net/DTD/sodipodi-0.dtd"
    width="15.36pt"
    height="15.36pt"
    viewBox="0 0 15.36 15.36">
<defs/>
<path id="outline" transform="matrix(0.24 0 0 0.24 0.48 8.4)" fill="#ffffff" stroke="#ffffff" stroke-width="2" stroke-linecap="butt" stroke-linejoin="round" d="M0 7C-1.33227e-15 3.13401 3.13401 0 7 0L53 0C56.866 7.10543e-15 60 3.13401 60 7C60 10.866 56.866 14 53 14L7 14C3.13401 14 -4.44089e-16 10.866 0 7Z"/><g id="label_start" transform="matrix(0.291218100830823 0 0 0.302788132338608 -1.63897921202544 -1.16127767994396)" fill="none">
  <path id="shape0" transform="translate(7.7568359, 14.663589)" fill="#ffffff" stroke="#000000" stroke-opacity="0" stroke-width="0" stroke-linecap="square" stroke-linejoin="bevel" d="M3.27148 12.002C3.61654 12.002 3.88021 11.888 4.0625 11.6602C4.24479 11.4258 4.33594 11.1426 4.33594 10.8105C4.33594 10.472 4.28711 10.1855 4.18945 9.95117C4.0918 9.71029 3.94857 9.48893 3.75977 9.28711C3.57096 9.08529 3.39193 8.91927 3.22266 8.78906C3.0599 8.65234 2.85482 8.49609 2.60742 8.32031C1.75456 7.72135 1.12305 7.08984 0.712891 6.42578C0.309245 5.76172 0.107422 4.97721 0.107422 4.07227C0.107422 2.82227 0.481771 1.83268 1.23047 1.10352C1.98568 0.367839 2.95898 0 4.15039 0C5.3418 0 6.51693 0.348307 7.67578 1.04492L6.63086 3.55469C6.5918 3.53515 6.49089 3.48307 6.32813 3.39844C6.16536 3.30729 6.0612 3.25195 6.01563 3.23242C5.97005 3.20638 5.87565 3.16081 5.73242 3.0957C5.58919 3.02409 5.48828 2.97526 5.42969 2.94922L5.16602 2.85156C4.87956 2.74088 4.60286 2.68554 4.33594 2.68554C4.07552 2.68554 3.86719 2.80599 3.71094 3.04687C3.5612 3.28125 3.48633 3.5677 3.48633 3.90625C3.48633 4.23828 3.52865 4.51497 3.61328 4.73633C3.69792 4.95768 3.82812 5.16276 4.00391 5.35156C4.30339 5.66406 4.67122 5.96354 5.10742 6.25C5.97331 6.83593 6.62435 7.45442 7.06055 8.10547C7.50326 8.75 7.72461 9.52799 7.72461 10.4395C7.72461 11.8001 7.36003 12.845 6.63086 13.5742C5.90169 14.2969 4.86328 14.6582 3.51563 14.6582C2.17448 14.6582 1.0026 14.375 0 13.8086L0 10.6055C1.41927 11.5365 2.50977 12.002 3.27148 12.002Z"/>
  <path id="shape1" transform="translate(16.438477, 14.858902)" fill="#ffffff" stroke="#000000" stroke-opacity="0" stroke-width="0" stroke-linecap="square" stroke-linejoin="bevel" d="M8.71094 2.68555L6.05469 2.68555L6.05469 14.2773L2.65625 14.2773L2.65625 2.68555L0 2.68555L0 0L8.71094 0Z"/>
  <path id="shape2" transform="translate(25.432617, 14.800308)" fill="#ffffff" stroke="#000000" stroke-opacity="0" stroke-width="0" stroke-linecap="square" stroke-linejoin="bevel" d="M11.3281 14.3359L7.89063 14.3359L7.09961 10.8398L4.21875 10.8398L3.42773 14.3359L0 14.3359L3.54492 0L7.77344 0ZM6.51367 8.13477L5.66406 4.375C5.5599 4.8763 5.2832 6.12956 4.83398 8.13477Z"/>
  <path id="shape3" transform="translate(38.108398, 14.858902)" fill="#ffffff" stroke="#000000" stroke-opacity="0" stroke-width="0" stroke-linecap="square" stroke-linejoin="bevel" d="M0 0L3.78906 0C5.35807 0 6.51693 0.354818 7.26563 1.06445C8.01432 1.77409 8.38867 2.86133 8.38867 4.32617C8.38867 6.02539 7.80599 7.25911 6.64063 8.02734L9.375 14.2773L5.77148 14.2773L3.58398 8.88672L3.4082 8.88672L3.4082 14.2773L0 14.2773ZM3.4082 2.64648L3.4082 6.25L3.66211 6.25C4.11133 6.25 4.43685 6.09701 4.63867 5.79102C4.84701 5.48503 4.95117 5.02279 4.95117 4.4043C4.95117 3.7793 4.84375 3.33008 4.62891 3.05664C4.42057 2.7832 4.0918 2.64648 3.64258 2.64648Z"/>
  <path id="shape4" transform="translate(47.532227, 14.858902)" fill="#ffffff" stroke="#000000" stroke-opacity="0" stroke-width="0" stroke-linecap="square" stroke-linejoin="bevel" d="M8.71094 2.68555L6.05469 2.68555L6.05469 14.2773L2.65625 14.2773L2.65625 2.68555L0 2.68555L0 0L8.71094 0Z"/>
 </g>
</svg>
