<?xml version="1.0" standalone="no"?>
<!DOCTYPE svg PUBLIC "-//W3C//DTD SVG 20010904//EN" "http://www.w3.org/TR/2001/REC-SVG-20010904/DTD/svg10.dtd">
<!-- Created using Krita: https://krita.org -->
<svg xmlns="http://www.w3.org/2000/svg" 
    xmlns:xlink="http://www.w3.org/1999/xlink"
    xmlns:krita="http://krita.org/namespaces/svg/krita"
    xmlns:sodipodi="http://sodipodi.sourceforge.net/DTD/sodipodi-0.dtd"
    width="15.36pt"
    height="15.36pt"
    viewBox="0 0 15.36 15.36">
<defs/>
<circle id="outline" transform="matrix(0.24 0 0 0.24 0.96 0.96)" r="28" cx="28" cy="28" fill="none" stroke="#ffffff" stroke-width="2" stroke-linecap="butt" stroke-linejoin="miter" stroke-miterlimit="2"/><path id="button_a" transform="matrix(0.24 0 0 0.24 0.96 0.96)" fill="#ffffff" stroke="#000000" stroke-opacity="0" stroke-width="0" stroke-linecap="square" stroke-linejoin="bevel" d="M28 0C12.536 -2.66454e-15 1.77636e-15 12.536 0 28C1.77636e-15 43.464 12.536 56 28 56C43.464 56 56 43.464 56 28C56 12.536 43.464 -8.88178e-16 28 0ZM23.1174 12.6009L32.4319 12.3756L41.9718 43.6244L33.108 43.6244L31.23 35.5117L24.9202 35.5117L22.5915 43.6244C20.3064 43.6244 16.5387 43.5493 14.2535 43.5493ZM28 21.1643C27.7917 22.1669 25.8937 25.7924 24.9953 29.8028L30.4038 29.8028Z"/>
</svg>
