<?xml version="1.0" standalone="no"?>
<!DOCTYPE svg PUBLIC "-//W3C//DTD SVG 20010904//EN" "http://www.w3.org/TR/2001/REC-SVG-20010904/DTD/svg10.dtd">
<!-- Created using Krita: https://krita.org -->
<svg xmlns="http://www.w3.org/2000/svg" 
    xmlns:xlink="http://www.w3.org/1999/xlink"
    xmlns:krita="http://krita.org/namespaces/svg/krita"
    xmlns:sodipodi="http://sodipodi.sourceforge.net/DTD/sodipodi-0.dtd"
    width="15.36pt"
    height="15.36pt"
    viewBox="0 0 15.36 15.36">
<defs/>
<path id="outline" transform="matrix(0.24 0 0 0.24 0.48 8.4)" fill="#ffffff" stroke="#ffffff" stroke-width="2" stroke-linecap="butt" stroke-linejoin="round" d="M0 7C-1.33227e-15 3.13401 3.13401 0 7 0L53 0C56.866 7.10543e-15 60 3.13401 60 7C60 10.866 56.866 14 53 14L7 14C3.13401 14 -4.44089e-16 10.866 0 7Z"/><g id="label_select" transform="matrix(0.257393365427895 0 0 0.283850507197198 -0.538081656726572 -0.643005814981258)" fill="none">
  <path id="shape0" transform="translate(4.3193359, 14.663589)" fill="#ffffff" stroke="#000000" stroke-opacity="0" stroke-width="0" stroke-linecap="square" stroke-linejoin="bevel" d="M3.27148 12.002C3.61654 12.002 3.88021 11.888 4.0625 11.6602C4.24479 11.4258 4.33594 11.1426 4.33594 10.8105C4.33594 10.472 4.28711 10.1855 4.18945 9.95117C4.0918 9.71029 3.94857 9.48893 3.75977 9.28711C3.57096 9.08529 3.39193 8.91927 3.22266 8.78906C3.0599 8.65234 2.85482 8.49609 2.60742 8.32031C1.75456 7.72135 1.12305 7.08984 0.712891 6.42578C0.309245 5.76172 0.107422 4.97721 0.107422 4.07227C0.107422 2.82227 0.481771 1.83268 1.23047 1.10352C1.98568 0.367839 2.95898 0 4.15039 0C5.3418 0 6.51693 0.348307 7.67578 1.04492L6.63086 3.55469C6.5918 3.53515 6.49089 3.48307 6.32813 3.39844C6.16536 3.30729 6.0612 3.25195 6.01563 3.23242C5.97005 3.20638 5.87565 3.16081 5.73242 3.0957C5.58919 3.02409 5.48828 2.97526 5.42969 2.94922L5.16602 2.85156C4.87956 2.74088 4.60286 2.68554 4.33594 2.68554C4.07552 2.68554 3.86719 2.80599 3.71094 3.04687C3.5612 3.28125 3.48633 3.5677 3.48633 3.90625C3.48633 4.23828 3.52865 4.51497 3.61328 4.73633C3.69792 4.95768 3.82813 5.16276 4.00391 5.35156C4.30339 5.66406 4.67122 5.96354 5.10742 6.25C5.97331 6.83593 6.62435 7.45442 7.06055 8.10547C7.50326 8.75 7.72461 9.52799 7.72461 10.4395C7.72461 11.8001 7.36003 12.845 6.63086 13.5742C5.90169 14.2969 4.86328 14.6582 3.51563 14.6582C2.17448 14.6582 1.0026 14.375 0 13.8086L0 10.6055C1.41927 11.5365 2.50977 12.002 3.27148 12.002Z"/>
  <path id="shape1" transform="translate(14.045898, 14.858902)" fill="#ffffff" stroke="#000000" stroke-opacity="0" stroke-width="0" stroke-linecap="square" stroke-linejoin="bevel" d="M7.08008 2.64648L3.41797 2.64648L3.41797 5.52734L6.81641 5.52734L6.81641 8.18359L3.41797 8.18359L3.41797 11.6016L7.08008 11.6016L7.08008 14.2773L0 14.2773L0 0L7.08008 0Z"/>
  <path id="shape2" transform="translate(23.420898, 14.858902)" fill="#ffffff" stroke="#000000" stroke-opacity="0" stroke-width="0" stroke-linecap="square" stroke-linejoin="bevel" d="M3.41797 11.6016L6.99219 11.6016L6.99219 14.2773L0 14.2773L0 0L3.41797 0Z"/>
  <path id="shape3" transform="translate(32.522461, 14.858902)" fill="#ffffff" stroke="#000000" stroke-opacity="0" stroke-width="0" stroke-linecap="square" stroke-linejoin="bevel" d="M7.08008 2.64648L3.41797 2.64648L3.41797 5.52734L6.81641 5.52734L6.81641 8.18359L3.41797 8.18359L3.41797 11.6016L7.08008 11.6016L7.08008 14.2773L0 14.2773L0 0L7.08008 0Z"/>
  <path id="shape4" transform="translate(41.370117, 14.663589)" fill="#ffffff" stroke="#000000" stroke-opacity="0" stroke-width="0" stroke-linecap="square" stroke-linejoin="bevel" d="M5.27344 14.6582C4.48568 14.6582 3.78255 14.5247 3.16406 14.2578C2.55208 13.9844 2.05078 13.623 1.66016 13.1738C1.26953 12.7246 0.947266 12.181 0.69336 11.543C0.23112 10.3841 0 8.98763 0 7.35352C0 6.06445 0.16276 4.8763 0.488281 3.78906C0.813802 2.6888 1.36719 1.78385 2.14844 1.07422C2.95573 0.358073 4.01042 0 5.3125 0C5.88542 0 6.43555 0.0846357 6.96289 0.253907C7.49674 0.423178 8.07292 0.706381 8.69141 1.10352L7.71484 3.51563C7.66276 3.46354 7.5358 3.3789 7.33398 3.26172C7.13216 3.13802 6.94661 3.04036 6.77734 2.96875C6.32813 2.76693 5.9082 2.66602 5.51758 2.66602C5.13346 2.66602 4.81771 2.77995 4.57031 3.00781C4.32292 3.22917 4.13086 3.5026 3.99414 3.82813C3.85742 4.15365 3.75 4.54427 3.67188 5C3.53516 5.73568 3.4668 6.52669 3.4668 7.37305C3.4668 10.446 4.16667 11.9824 5.56641 11.9824C6.17839 11.9824 7.08659 11.6374 8.29102 10.9473L8.29102 13.8281C7.43815 14.3815 6.43229 14.6582 5.27344 14.6582Z"/>
  <path id="shape5" transform="translate(50.969727, 14.858902)" fill="#ffffff" stroke="#000000" stroke-opacity="0" stroke-width="0" stroke-linecap="square" stroke-linejoin="bevel" d="M8.71094 2.68555L6.05469 2.68555L6.05469 14.2773L2.65625 14.2773L2.65625 2.68555L0 2.68555L0 0L8.71094 0Z"/>
 </g>
</svg>
