<?xml version="1.0" standalone="no"?>
<!DOCTYPE svg PUBLIC "-//W3C//DTD SVG 20010904//EN" "http://www.w3.org/TR/2001/REC-SVG-20010904/DTD/svg10.dtd">
<!-- Created using Krita: https://krita.org -->
<svg xmlns="http://www.w3.org/2000/svg" 
    xmlns:xlink="http://www.w3.org/1999/xlink"
    xmlns:krita="http://krita.org/namespaces/svg/krita"
    xmlns:sodipodi="http://sodipodi.sourceforge.net/DTD/sodipodi-0.dtd"
    width="15.36pt"
    height="15.36pt"
    viewBox="0 0 15.36 15.36">
<defs/>
<path id="outline_up" transform="matrix(0.24 0 0 0.24 5.28 0.48)" fill="none" stroke="#ffffff" stroke-width="3" stroke-linecap="butt" stroke-linejoin="round" d="M0 21.5L0 4C0 1.79086 1.79086 8.88178e-16 4 0L16 0C18.2091 -2.22045e-16 20 1.79086 20 4L20 21.5"/><path id="outline_right" transform="matrix(0.24 0 0 0.24 9.72 5.28)" fill="none" stroke="#ffffff" stroke-width="3" stroke-linecap="butt" stroke-linejoin="round" d="M0 0L17.5 0C19.7091 0 21.5 1.79086 21.5 4L21.5 16C21.5 18.2091 19.7091 20 17.5 20L0 20"/><path id="outline_down" transform="matrix(0.24 0 0 0.24 5.28 9.72)" fill="none" stroke="#ffffff" stroke-width="3" stroke-linecap="butt" stroke-linejoin="round" d="M0 0L0 17.5C0 19.7091 1.79086 21.5 4 21.5L16 21.5C18.2091 21.5 20 19.7091 20 17.5L20 0"/><path id="outline_left" transform="matrix(0.24 0 0 0.24 0.48 5.28)" fill="none" stroke="#ffffff" stroke-width="3" stroke-linecap="butt" stroke-linejoin="round" d="M21.5 0L4 0C1.79086 0 -2.22045e-16 1.79086 0 4L2.22045e-16 16C1.11022e-15 18.2091 1.79086 20 4 20L21.5 20"/><path id="dpad_up" transform="matrix(0.24 0 0 0.24 6.36607228915663 1.488)" fill="none" stroke="#ffffff" stroke-width="2" stroke-linecap="butt" stroke-linejoin="round" d="M0 8.91325C3.33333 8.91325 7.69317 8.91325 11.0265 8.91325L5.4747 0Z"/><path id="dpad_right" transform="matrix(0.24 0 0 0.24 11.6587951807229 6.32906024096385)" fill="none" stroke="#ffffff" stroke-width="2" stroke-linecap="butt" stroke-linejoin="round" d="M0 0L0.0771084 10.641L9.22169 5.62892Z"/><path id="dpad_down" transform="matrix(0.24 0 0 0.24 6.32906024096385 11.714313253012)" fill="none" stroke="#ffffff" stroke-width="2" stroke-linecap="butt" stroke-linejoin="round" d="M0 0L11.1807 0L5.62892 8.99036Z"/><path id="dpad_left" transform="matrix(0.24 0 0 0.24 1.488 6.2735421686747)" fill="none" stroke="#ffffff" stroke-width="2" stroke-linecap="butt" stroke-linejoin="round" d="M9.22169 0L8.99036 11.6434L0 5.86024Z"/><ellipse id="dpad_thumb" transform="matrix(0.24 0 0 0.24 6.19951807228915 6.2735421686747)" rx="6.13012048192771" ry="5.78313253012048" cx="6.13012048192771" cy="5.78313253012048" fill="none" stroke="#ffffff" stroke-width="2" stroke-linecap="butt" stroke-linejoin="round"/>
</svg>
